# xmcd
# 
# Track frame offsets:
#     150
#     11820
#     28237
#     41900
#     57167
#     71235
#     88372
#     106245
#     126597
#     145185
#     163355
#     176122
#     196205
# 
# Disc length: 2804
# 
# Revision: 3
# Processed by: cddbd v1.5.2PL0 Copyright (c) Steve Scherf et al.
# Submitted via: fre:ac v1.1beta1pre3
# 
DISCID=cd0af20d
DTITLE=Steve Earle - Essential Steve Earle
DYEAR=1993
DGENRE=Country
TTITLE0=Guitar Town
TTITLE1=Hillbilly Highway
TTITLE2=The Devil's Right Hand
TTITLE3=Goodbye's All We Got Left to Say
TTITLE4=Six Days on the Road
TTITLE5=Someday
TTITLE6=Good Ol' Boy ( Gettin' Tough )
TTITLE7=Copperhead Road
TTITLE8=The Rain Came Down
TTITLE9=I Ain't Ever Satisfied
TTITLE10=Nowhere  Road
TTITLE11=The Week of Living Dangerously
TTITLE12=Continental Trailways Blues
EXTD=YEAR: 1993
EXTT0=
EXTT1=
EXTT2=
EXTT3=
EXTT4=
EXTT5=
EXTT6=
EXTT7=
EXTT8=
EXTT9=
EXTT10=
EXTT11=
EXTT12=
PLAYORDER=
